<svg width="37" height="195" viewBox="0 0 37 195" fill="none" xmlns="http://www.w3.org/2000/svg">
<path d="M12 0L18 146L24 0L12 0Z" fill="white"/>
<path d="M11.0118 165L0 168.673V195L11.0118 191.327L25.6941 195L36.7059 191.327V165L25.6941 168.673L18.3529 166.837L11.0118 165Z" fill="white"/>
<path fill-rule="evenodd" clip-rule="evenodd" d="M25.6941 168.673L11.0118 165L0 168.673V195L11.0118 191.327L25.6941 195L36.7059 191.327V165L25.6941 168.673ZM35.2941 166.959L25.7506 170.143L11.0682 166.469L1.41176 169.691V193.041L10.9553 189.857L25.6376 193.531L35.2941 190.309V166.959Z" fill="black"/>
<path fill-rule="evenodd" clip-rule="evenodd" d="M24.0786 174.113C23.657 174.013 23.224 173.98 22.7902 174.012L22.714 172.956C23.2515 172.917 23.7926 172.957 24.3228 173.083L24.0786 174.113ZM21.5125 174.289C21.1077 174.436 20.712 174.639 20.3359 174.895L19.7405 174.02C20.1866 173.716 20.6602 173.473 21.1499 173.294L21.5125 174.289ZM26.2866 175.427C25.968 175.087 25.6268 174.814 25.2721 174.601L25.8172 173.693C26.2586 173.958 26.6756 174.294 27.0587 174.702L26.2866 175.427ZM19.3226 175.768C19.0259 176.088 18.7536 176.447 18.5138 176.845L17.6072 176.297C17.8843 175.838 18.2003 175.42 18.5472 175.047L19.3226 175.768ZM27.6613 177.735C27.4902 177.276 27.2949 176.866 27.0807 176.5L27.9941 175.965C28.2414 176.387 28.4624 176.853 28.6533 177.365L27.6613 177.735ZM17.9282 178.069C17.851 178.278 17.7819 178.495 17.7215 178.719C17.6576 178.957 17.5899 179.187 17.5186 179.41L16.51 179.088C16.5762 178.881 16.6393 178.666 16.6992 178.444C16.7677 178.19 16.8463 177.943 16.9344 177.703L17.9282 178.069ZM4.10771 179.337C4.07545 179.088 4.05872 178.836 4.05872 178.582H5.11754C5.11754 178.79 5.13122 178.996 5.15772 179.2L4.10771 179.337ZM28.2916 180.45C28.2325 179.957 28.1527 179.496 28.0547 179.065L29.0871 178.83C29.1938 179.299 29.2797 179.797 29.3429 180.324L28.2916 180.45ZM17.0127 180.749C16.8069 181.213 16.5823 181.639 16.341 182.028L15.4412 181.47C15.6552 181.125 15.8573 180.743 16.0447 180.32L17.0127 180.749ZM5.18152 182.11C4.9024 181.698 4.66662 181.256 4.48425 180.791L5.46986 180.405C5.62225 180.793 5.82063 181.165 6.05798 181.515L5.18152 182.11ZM28.4117 182.574C28.4117 182.329 28.4073 182.089 28.3989 181.856L29.457 181.818C29.466 182.064 29.4705 182.316 29.4705 182.574H28.4117ZM7.29139 184.167C6.87717 183.899 6.4887 183.589 6.13471 183.245L6.87294 182.486C7.17699 182.781 7.51085 183.048 7.86658 183.278L7.29139 184.167ZM15.463 183.207C15.1143 183.595 14.7435 183.926 14.3558 184.202L13.7414 183.34C14.0632 183.11 14.3763 182.832 14.6755 182.499L15.463 183.207ZM10.0524 185.227C9.55891 185.154 9.0753 185.023 8.61076 184.842L8.99388 183.855C9.38868 184.008 9.79603 184.118 10.2078 184.179L10.0524 185.227ZM13.0267 184.917C12.5438 185.101 12.0504 185.215 11.5562 185.265L11.4498 184.211C11.854 184.17 12.2561 184.078 12.6494 183.928L13.0267 184.917Z" fill="black"/>
<path fill-rule="evenodd" clip-rule="evenodd" d="M27.8232 185.64L26.6325 186.831L27.7148 187.913L28.9055 186.722L30.0963 187.913L31.1786 186.831L29.9878 185.64L31.1782 184.449L30.0959 183.367L28.9055 184.558L27.7153 183.367L26.6329 184.45L27.8232 185.64Z" fill="black"/>
</svg>
