<svg width="34" height="25" viewBox="0 0 34 25" fill="none" xmlns="http://www.w3.org/2000/svg">
<g clip-path="url(#clip0_292_246)">
<path d="M17.0074 24.0608C25.843 24.0608 33.0057 18.8882 33.0057 12.5075C33.0057 6.12672 25.843 0.954102 17.0074 0.954102C8.17182 0.954102 1.00916 6.12672 1.00916 12.5075C1.00916 18.8882 8.17182 24.0608 17.0074 24.0608Z" fill="white"/>
<path d="M17.0074 25.0151C13.271 25.0185 9.62811 23.8413 6.59449 21.6502C3.56088 19.459 1.29028 16.3649 0.103957 12.8058L6.10352e-05 12.5077L0.103957 12.1946C1.28197 8.62641 3.54902 5.52168 6.58335 3.32125C9.61768 1.12082 13.265 -0.0634766 17.0074 -0.0634766C20.7498 -0.0634766 24.3972 1.12082 27.4315 3.32125C30.4658 5.52168 32.733 8.62641 33.911 12.1946L34 12.5077L33.911 12.8058C32.7247 16.3649 30.454 19.459 27.4204 21.6502C24.3867 23.8413 20.7439 25.0185 17.0074 25.0151ZM2.00352 12.5077C3.11178 15.6131 5.14797 18.2989 7.83363 20.1976C10.5193 22.0964 13.7233 23.1154 17.0074 23.1154C20.2916 23.1154 23.4957 22.0964 26.1813 20.1976C28.867 18.2989 30.9032 15.6131 32.0114 12.5077C30.9032 9.4022 28.867 6.71645 26.1813 4.81769C23.4957 2.91893 20.2916 1.89986 17.0074 1.89986C13.7233 1.89986 10.5193 2.91893 7.83363 4.81769C5.14797 6.71645 3.11178 9.4022 2.00352 12.5077Z" fill="black"/>
<path d="M16.6512 4.54688C15.9663 4.5789 15.2966 4.76094 14.689 5.08025C14.0814 5.39956 13.5507 5.84843 13.134 6.39541L15.6421 10.6441H11.2938C11.1977 11.2355 11.148 11.8337 11.1453 12.433C11.1453 16.9052 13.6386 20.3787 16.7106 20.3787C19.7826 20.3787 22.2907 16.8307 22.2907 12.433C22.2907 8.03524 19.7381 4.54688 16.6512 4.54688Z" fill="black"/>
</g>
<defs>
<clipPath id="clip0_292_246">
<rect width="34" height="25" fill="white"/>
</clipPath>
</defs>
</svg>
