<svg width="298" height="142" viewBox="0 0 298 142" fill="none" xmlns="http://www.w3.org/2000/svg">
<path d="M126.79 96.8368L113.91 98.2965C112.263 98.3822 110.628 98.6315 109.029 99.041C108.228 99.3037 106.64 99.041 105.154 99.2892L93.1338 100.749L81.4779 102.325C79.5547 102.573 77.5877 102.763 75.6499 102.968L72.736 103.303L69.3558 103.785L67.8988 103.989C66.9663 100.778 66.8352 100.15 66.4418 98.6323C66.0484 97.1142 65.7861 95.9172 65.3782 94.5451C64.4166 91.3922 63.455 88.1078 62.7411 84.9694C62.2165 82.6631 61.7212 80.386 61.0364 78.1526C60.5993 76.6929 60.0456 75.4959 59.5794 73.9487C59.2921 72.4814 58.8017 71.0615 58.1224 69.7301C58.0258 69.3711 57.9576 69.0051 57.9184 68.6354C57.7111 67.0166 57.2948 65.4317 56.68 63.9205C56.227 62.7846 55.8522 61.619 55.5581 60.4318C54.6402 57.235 53.7369 54.0383 52.8918 50.8269C52.2945 48.4038 51.7117 46.0099 51.1143 43.6014C50.5169 41.1929 49.5553 38.4632 49.0891 36.1131C48.6229 33.763 48.0109 31.5297 47.3844 29.2671C47.1526 27.9459 46.7254 26.6668 46.1168 25.4719C45.9993 25.2175 45.9207 24.9468 45.8837 24.669C45.6001 22.557 45.142 20.4722 44.5142 18.4361L47.1513 17.7792L48.8123 17.3413C49.8176 17.064 50.8375 16.8158 51.8719 16.6114C55.7912 15.8816 59.7542 14.9036 63.6881 14.0132C64.7553 13.8613 65.7984 13.5719 66.7915 13.152C67.4228 12.9044 68.0843 12.7424 68.7584 12.6702C71.7943 12.2386 74.8048 11.6442 77.7771 10.8894C81.1865 10.2033 84.5667 9.26912 88.0635 8.80202C89.8293 8.5991 91.5594 8.15717 93.2066 7.48829C94.4236 7.13393 95.6591 6.84643 96.9074 6.62707C97.9418 6.36433 98.8889 5.98479 99.9088 5.75124C100.929 5.51769 101.672 5.50308 102.56 5.3717C102.842 5.33582 103.119 5.27725 103.391 5.19655C108.286 3.73684 113.357 3.1238 118.34 1.89764L122.23 0.978022L126.601 0L134.017 2.91941C136.493 3.75396 138.83 4.95445 140.952 6.48109C141.651 7.09417 141.535 7.41531 140.326 7.16716C139.338 6.98833 138.364 6.73954 137.412 6.42269L132.807 4.89002L129.413 3.78063L126.338 2.75886L126.003 2.84644L125.304 2.99242L123.847 3.25516C122.823 3.55687 121.766 3.72852 120.7 3.76606C120.442 3.7719 120.187 3.81617 119.942 3.89743C115.571 5.35714 110.909 6.07238 106.392 7.12337C102.546 7.99919 98.9034 9.21075 94.9696 9.91141C92.7856 10.7278 90.5184 11.3006 88.2092 11.6192C80.5017 12.9184 72.9108 14.889 65.2616 16.5239L47.6613 20.4213L48.4335 23.2239C48.9027 24.5098 49.2824 25.8267 49.5699 27.1651C49.8176 28.6248 50.4587 30.4641 50.9103 32.1281C51.362 33.7922 51.8574 35.2519 52.1633 36.7116C53.4309 42.7985 55.3396 48.7834 56.9568 54.8119C58.5741 60.8405 60.2059 66.8253 61.9543 72.7517C63.0179 76.3718 64.2272 79.9481 65.1596 83.6411C65.7042 85.198 66.0851 86.8074 66.2961 88.4435C66.2961 88.9106 66.9954 90.2973 67.2868 91.3629C67.9716 93.859 68.671 96.3697 69.3703 98.8658L69.9677 101.026L76.1745 100.282C78.3599 100.004 80.5454 99.5957 82.6726 99.3037C84.7998 99.0118 87.2621 98.7344 89.5496 98.5155L98.2915 97.7126C101.307 97.4061 104.411 96.866 107.296 96.7054C112.672 96.3989 117.99 95.6107 123.323 95.0268L131.161 94.151L138.737 93.2313C141.214 91.7716 143.837 90.5601 146.357 89.0858C147.538 88.3851 149.607 88.2392 149.271 88.7939C149.164 88.956 149.025 89.095 148.863 89.2026C146.534 91.0385 144.102 92.7393 141.579 94.2969L139.437 95.5231L126.79 96.8368Z" fill="black"/>
<path d="M6.02106 73.3946C6.87137 73.7927 7.78262 74.0444 8.71648 74.139C9.03701 74.2266 9.40126 74.4164 9.76551 73.9639C10.1298 73.5114 10.2755 74.2996 10.596 74.285C11.4822 74.1994 12.3566 74.0183 13.204 73.7449C13.6176 73.6012 14.0175 73.4204 14.3987 73.2048C14.7775 72.9566 15.1418 72.7085 15.5352 72.4895C16.3775 72.1754 17.1391 71.6767 17.7644 71.0298C18.2597 70.4606 19.0465 70.3584 19.5419 69.8037C20.0593 69.2262 20.664 68.7336 21.334 68.344C21.8571 68.104 22.32 67.7499 22.689 67.3076C22.8929 67.0157 22.9221 66.5777 23.1989 66.3296C23.4757 66.0814 23.9274 65.9501 23.7671 65.3224C23.7671 65.3224 23.942 65.2056 24.0585 65.191C24.2976 65.1745 24.524 65.0775 24.7012 64.9159C24.8784 64.7543 24.9959 64.5375 25.0347 64.3006C25.1281 63.9684 25.3277 63.6761 25.6029 63.4686C26.2462 62.8103 26.954 62.2186 27.7156 61.7024C28.2692 61.3082 28.9831 61.1331 29.5805 60.7827C30.1779 60.4324 30.7752 59.8631 31.4892 59.8047C32.1482 59.7269 32.7917 59.5497 33.3978 59.2792C33.7475 59.1625 34.2283 59.2792 34.3594 58.6224C34.3594 58.6224 34.5197 58.5348 34.5925 58.6224C35.7873 59.0603 36.6177 57.9217 37.7688 57.9947C38.9198 58.0677 40.0417 57.9217 41.1781 57.9947C41.4841 57.9947 41.7755 58.199 42.1106 57.8487C42.1921 57.786 42.2919 57.752 42.3947 57.752C42.4974 57.752 42.5973 57.786 42.6788 57.8487C43.4073 58.5348 44.3106 58.3888 45.112 58.7245C46.0531 58.9163 46.9363 59.3262 47.6908 59.9215C47.8574 60.1376 48.0927 60.2902 48.3577 60.3539C48.6227 60.4176 48.9015 60.3887 49.1478 60.2718C49.4538 60.1405 49.7598 60.5637 50.0949 60.6659C50.43 60.7681 50.7214 60.666 50.9691 60.7827C51.2167 60.8995 51.2896 61.1769 51.4499 61.3812C51.4717 61.4114 51.5001 61.4363 51.5329 61.454C51.5657 61.4717 51.6021 61.4817 51.6393 61.4834C53.0962 61.6293 53.8539 62.9431 55.034 63.5708C56.1612 64.1654 57.2424 64.8436 58.2686 65.5997C58.5722 65.7652 58.8201 66.0172 58.9809 66.3238C59.1417 66.6303 59.2081 66.9778 59.1719 67.3222C59.1719 67.7893 59.3613 68.3002 58.9242 68.5338C58.6227 68.7013 58.2739 68.763 57.9334 68.7089C57.4526 68.5921 57.0155 68.49 56.593 68.344C55.748 68.0521 54.7864 67.9937 54.189 67.3076C54.0141 67.1033 53.6062 67.147 53.6645 66.6507C53.6645 66.6507 53.6645 66.4902 53.5333 66.4902C52.2075 66.4902 51.4644 65.4683 50.4591 64.9429C49.4538 64.4174 48.5359 64.5779 47.7928 63.9503C47.5168 64.0596 47.214 64.0818 46.9249 64.014C46.6359 63.9462 46.3744 63.7916 46.1756 63.5708C44.6741 62.5577 42.9149 61.9955 41.1053 61.9505C39.3276 61.6755 37.5124 61.7699 35.7727 62.2278C35.4667 62.2278 35.321 62.6657 34.9276 62.549C34.5343 62.4322 34.1846 62.7387 33.8349 62.9139C33.5367 63.111 33.2063 63.2543 32.8587 63.3372C31.438 63.6849 30.1447 64.4289 29.1288 65.483C28.5606 65.9355 27.9924 66.4172 27.4679 66.9427C26.9535 67.4817 26.4672 68.0468 26.0109 68.636C25.4589 69.4803 24.8244 70.2675 24.1168 70.9861C23.7963 71.2634 23.6651 71.8035 22.9658 71.6721C22.7764 71.6721 22.7327 72.1976 22.5287 72.402C22.0333 72.8691 21.4797 73.2924 20.9406 73.7449C20.1392 74.2996 19.2796 74.7959 18.4928 75.3798C18.012 75.7447 17.5312 76.1534 17.0359 76.4891C16.4817 76.8476 15.8708 77.1092 15.2292 77.2628C14.4019 77.4343 13.565 77.5562 12.7232 77.6277C11.849 77.6277 10.9602 78.1386 10.1006 77.8175C9.24099 77.4963 8.55621 77.5109 7.79858 77.3358C7.41977 77.2482 7.02637 77.2044 6.66212 77.1168C6.29788 77.0293 5.91906 76.8833 5.56938 76.7519C4.17138 76.1657 2.84233 75.4265 1.60639 74.5477C0.877902 74.066 0.630207 73.2048 0.0619824 72.6063C-0.214845 72.2998 0.499079 71.1466 0.950744 70.9569C1.03212 70.9371 1.11705 70.9371 1.19843 70.9569C1.94149 71.2196 2.83026 71.1612 3.32564 71.6867C4.12753 72.3963 5.03749 72.9728 6.02106 73.3946Z" fill="black"/>
<path d="M76.0156 70.1812C77.1521 70.9402 78.2594 71.743 79.4249 72.4437C80.5905 73.1444 81.7707 73.8304 83.0091 74.3413C83.9259 74.8249 84.9072 75.1739 85.9231 75.3777C86.69 75.6207 87.4437 75.9033 88.1814 76.2243C90.6071 76.8415 93.1161 77.0633 95.6121 76.8812C96.812 76.7839 98.0013 76.5836 99.1671 76.2827C99.7499 76.1076 100.304 75.8886 100.886 75.7134C101.46 75.5302 102.02 75.3058 102.562 75.042C104.788 74.1352 106.857 72.8841 108.696 71.3343C109.453 70.6483 110.153 70.079 110.925 69.4367L112.003 68.5025C112.338 68.1668 112.659 67.8164 112.994 67.4515C114.451 65.9918 115.675 64.2401 116.986 62.6637C117.925 61.5261 118.787 60.3264 119.565 59.0728C120.017 58.2554 120.352 57.4526 120.847 56.5913C121.401 55.8252 121.81 54.9645 122.056 54.0514C122.165 53.8425 122.297 53.6467 122.45 53.4675C123.055 52.6301 123.518 51.6978 123.819 50.7087C124.056 49.9784 124.333 49.2621 124.65 48.563L125.087 47.439L124.781 47.1324L122.552 44.8991C121.459 43.7459 120.381 42.6219 119.215 41.5563C118.05 40.4908 116.636 39.3522 115.514 38.345C114.43 37.3206 113.271 36.3789 112.047 35.5278C111.403 34.9729 110.669 34.5335 109.876 34.2286C109.719 34.1488 109.573 34.0508 109.439 33.9367C108.527 33.1554 107.506 32.5112 106.408 32.0245C105.374 31.4552 104.237 31.0611 103.159 30.5648C102.607 30.265 102.038 29.997 101.455 29.7619L99.677 29.1635C98.4897 28.7657 97.2713 28.4678 96.0346 28.273C95.4006 28.0633 94.7238 28.0181 94.0676 28.1416C93.6584 28.1799 93.2456 28.1553 92.8438 28.0687C91.9217 27.9417 90.9884 27.9172 90.0609 27.9957C89.143 28.127 88.2251 28.346 87.3072 28.5066L85.8502 28.9883L85.0926 29.251L84.3787 29.6014L82.9217 30.2728C82.4555 30.5356 81.9892 30.8129 81.4647 31.0465C80.4764 31.5401 79.6104 32.2482 78.9296 33.1192C78.4078 33.7099 77.8481 34.2658 77.254 34.7833C76.8315 35.2796 76.5255 35.8489 76.103 36.3306L74.952 37.5422C74.8292 37.6704 74.7217 37.8125 74.6315 37.9655C72.8435 40.6198 71.2325 43.3896 69.8088 46.2566C68.5149 49.271 67.3769 52.3502 66.3995 55.4819C66.0041 57.0908 65.4017 58.6413 64.6074 60.0946C64.2723 60.5909 64.0246 60.5471 64.0392 59.7443C64.0533 59.1071 64.1215 58.4722 64.2432 57.8467C64.4617 56.8249 64.6803 55.7885 64.9279 54.7959C65.3822 52.6791 66.0258 50.6077 66.8512 48.6067C67.0712 47.9451 67.38 47.3166 67.7691 46.7383C67.8644 46.6025 67.9427 46.4554 68.0022 46.3004C69.0067 43.437 70.4254 40.737 72.2129 38.2866C73.5128 36.0524 75.1327 34.0213 77.0209 32.258C77.4712 31.6189 78.0166 31.0528 78.6382 30.5794C78.9441 30.3166 79.2647 30.0685 79.5852 29.8349L80.576 29.251C85.11 26.5166 90.4435 25.4242 95.6849 26.1565C100.819 27.1384 105.71 29.1224 110.08 31.9953C110.856 32.4289 111.601 32.9166 112.309 33.455C113.038 34.0973 114.13 34.7103 114.99 35.4402C115.85 36.17 116.68 36.6955 117.394 37.3524C118.851 38.7245 120.308 40.1404 121.765 41.4688C123.222 42.7971 124.679 44.2568 126.136 45.6727L126.762 46.315L127.2 46.7529C127.2 46.8259 127.389 46.8989 127.374 46.9864L127.258 47.2784L126.85 48.344L126.573 49.0446C126.175 49.9594 125.767 50.879 125.349 51.8035C124.49 53.6281 123.601 55.4236 122.639 57.1752C121.53 59.3707 120.249 61.4744 118.807 63.4665C118.242 64.3774 117.556 65.2073 116.767 65.9334C116.52 66.1232 116.024 66.999 115.587 67.5245C114.485 68.819 113.297 70.0381 112.032 71.1738C111.173 71.9912 110.196 72.6335 109.279 73.4363C107.122 74.9832 104.824 76.3224 102.416 77.4359L100.216 78.1512C99.4631 78.3502 98.6994 78.5062 97.9287 78.6183C95.9976 78.8954 94.0392 78.9248 92.1007 78.7059C91.0876 78.6352 90.0802 78.4987 89.0848 78.2971C88.0856 78.1516 87.1073 77.887 86.1708 77.5089L84.9178 77.0418L83.7085 76.4871C82.9071 76.1075 82.0767 75.801 81.3045 75.3923C79.7454 74.6014 78.2369 73.7142 76.7878 72.7357L74.6315 71.276L72.6063 69.6557C71.1493 68.6047 69.9691 67.4077 68.687 66.2691C67.23 64.9846 66.1664 63.4957 64.8405 62.1236C64.2286 61.4813 63.8935 60.1822 64.3014 60.2989C64.4237 60.3313 64.5347 60.397 64.622 60.4887C66.1418 61.6482 67.6008 62.8858 68.9929 64.1964C70.1148 65.2474 71.2367 66.3276 72.4023 67.3493C73.5679 68.3711 74.7772 69.2616 76.0156 70.1812Z" fill="black"/>
<path d="M147.524 136.366C148.66 136.293 149.796 136.234 150.918 136.103C151.341 136.103 151.792 136.249 152.2 135.753C152.39 135.49 152.842 136.03 153.235 135.972C154.284 135.84 155.348 135.84 156.411 135.709C156.921 135.709 157.431 135.548 157.868 135.446L158.626 135.3H158.815C158.888 135.3 159.296 135.432 159.252 135.3L159.136 135.213C158.932 135.067 159.005 135.096 159.136 135.052C159.267 135.008 159.252 134.965 159.136 134.906C159.019 134.848 159.063 134.906 159.005 134.789C158.946 134.673 158.801 134.395 158.713 134.191C158.532 133.795 158.4 133.378 158.32 132.95C158.278 132.324 158.109 131.713 157.824 131.155C157.62 130.819 157.212 130.6 157.067 130.206C156.921 129.812 156.979 129.345 156.338 129.257C156.338 129.257 156.338 129.053 156.338 128.936C156.419 128.716 156.422 128.475 156.345 128.254C156.267 128.033 156.116 127.846 155.916 127.724C155.642 127.524 155.439 127.244 155.333 126.922C154.969 126.133 154.604 125.345 154.313 124.513C154.08 123.9 154.022 123.229 153.818 122.601C153.614 121.973 153.075 121.389 153.075 120.703C153.042 120.071 152.873 119.454 152.579 118.893C152.448 118.572 152.579 118.09 151.88 118.047C151.88 118.047 151.778 117.915 151.792 117.842C152.069 116.631 150.802 116.105 150.569 115.098C150.254 114.088 149.844 113.11 149.345 112.179C149.228 111.916 149.257 111.58 148.777 111.493C148.689 111.453 148.616 111.386 148.569 111.302C148.522 111.218 148.503 111.121 148.514 111.025C148.718 110.091 148.092 109.464 147.859 108.69C147.428 107.859 147.142 106.961 147.014 106.033C147.046 105.778 146.988 105.52 146.849 105.304C146.711 105.088 146.501 104.928 146.256 104.851C145.95 104.734 145.994 104.238 145.804 103.946C145.615 103.654 145.338 103.552 145.221 103.304C145.105 103.055 145.221 102.793 145.221 102.545C145.218 102.468 145.187 102.396 145.134 102.34C144.056 101.333 144.26 99.8003 143.575 98.6179C142.922 97.413 142.376 96.1528 141.943 94.8519C141.76 94.472 141.693 94.0464 141.75 93.6284C141.807 93.2104 141.986 92.8185 142.264 92.5017C142.389 92.3141 142.572 92.1726 142.785 92.0989C142.998 92.0251 143.23 92.023 143.444 92.093C143.724 92.2091 143.974 92.3891 144.172 92.6185L144.93 93.6841C145.44 94.414 146.212 95.0125 146.387 95.9467C146.387 96.2386 146.81 96.4284 146.489 96.8225C146.468 96.8523 146.456 96.888 146.456 96.9246C146.456 96.9613 146.468 96.9971 146.489 97.0268C147.611 97.8589 147.669 99.1872 148.208 100.282C148.747 101.377 149.563 101.931 149.753 102.982C150.05 103.124 150.301 103.347 150.477 103.626C150.652 103.906 150.745 104.229 150.743 104.559C151.218 106.591 151.952 108.554 152.929 110.398C153.672 112.354 154.575 114.237 155.362 116.237C155.493 116.558 155.916 116.718 155.843 117.2C155.77 117.682 156.163 118.047 156.338 118.455C156.558 118.811 156.715 119.2 156.805 119.608C157.121 121.233 157.686 122.799 158.48 124.25C159.035 125.789 159.687 127.291 160.432 128.746C161.003 129.572 161.491 130.452 161.889 131.374C162.021 131.782 162.472 132.074 162.152 132.673C162.064 132.848 162.589 133.052 162.72 133.301C162.851 133.549 163.215 134.381 163.434 134.921L164.162 136.643L165.153 138.964C164.264 138.964 163.405 139.096 162.545 139.183C161.685 139.271 160.578 139.577 159.442 139.709L158.844 139.796H158.378C158.077 139.818 157.775 139.818 157.475 139.796C156.703 139.796 155.93 139.665 155.158 139.665C154.374 139.798 153.577 139.837 152.783 139.782C151.377 139.584 149.95 139.584 148.543 139.782C147.14 139.808 145.739 139.915 144.347 140.103C143.561 140.22 142.803 139.84 142.031 139.898C141.666 139.898 141.084 138.658 141.2 138.205C141.225 138.122 141.27 138.047 141.331 137.986C142.06 137.519 142.715 136.833 143.59 136.804C144.959 136.672 146.241 136.468 147.524 136.366Z" fill="black"/>
<path d="M198.315 95.042L211.092 96.5017C212.698 96.792 214.328 96.9192 215.959 96.8812C216.789 96.8082 218.275 97.3921 219.747 97.5381L231.665 98.9102L243.321 100.034C245.244 100.239 247.182 100.501 249.149 100.749L252.063 101.071L253.52 101.217H254.219C254.438 101.217 254.758 101.217 254.7 101.217H254.816C254.815 101.183 254.815 101.148 254.816 101.114L255.006 100.487L255.589 98.5745C255.982 97.3046 256.375 96.0492 256.696 94.7501C257.497 91.5825 258.342 88.3128 259.348 85.262C260.062 83.0432 260.805 80.8829 261.358 78.6057C261.708 77.146 261.883 75.8469 262.32 74.3288C262.839 72.9504 263.163 71.5058 263.282 70.0373C263.38 69.6801 263.511 69.3331 263.675 69.0009C264.32 67.518 264.77 65.9577 265.015 64.359C265.218 63.1664 265.49 61.9869 265.831 60.8265C266.691 57.659 267.551 54.4768 268.468 51.3238L270.639 44.2735C271.368 41.8066 271.922 39.1207 272.737 36.8874C273.553 34.654 274.194 32.5082 274.777 30.2019C275.253 28.9577 275.538 27.6487 275.622 26.3191C275.66 26.0479 275.734 25.7828 275.841 25.5308C276.255 24.5538 276.6 23.549 276.875 22.5239L277.079 21.7648L277.181 21.3853V21.181C277.187 21.0643 277.187 20.9473 277.181 20.8306H276.832C276.832 20.8306 276.832 20.8306 276.686 20.8306L276.074 20.7138C275.258 20.5679 274.442 20.3927 273.626 20.1884C269.809 19.2104 265.846 18.4221 261.97 17.5609C260.91 17.2141 259.807 17.0176 258.692 16.977C258.022 16.9353 257.36 16.8027 256.725 16.5829C253.822 15.699 250.875 14.9681 247.896 14.3933C244.545 13.5759 241.121 13.0066 237.784 11.9556C236.119 11.3891 234.383 11.0599 232.627 10.9776C231.385 10.7785 230.155 10.5154 228.94 10.1894C227.906 9.99961 226.901 9.94121 225.895 9.72226C224.89 9.5033 224.205 9.21136 223.346 8.94862C223.076 8.85619 222.798 8.79257 222.515 8.75885C217.503 8.07278 212.724 6.43793 207.727 5.44533L202.86 4.42352L198.489 3.43093L193.871 5.32853C191.528 6.42515 189.032 7.15854 186.469 7.50352C185.551 7.50352 185.42 7.24077 186.469 6.5839C187.291 6.04115 188.148 5.55352 189.034 5.1242L193.405 3.08062L195.692 1.98584L196.828 1.43114L197.411 1.1538L198.315 0.730469L201.01 1.27055C201.797 1.43112 202.584 1.6209 203.385 1.83986C204.434 1.99823 205.457 2.29265 206.43 2.71569C206.665 2.81067 206.909 2.87919 207.159 2.92003C211.661 3.41633 216.177 4.74466 220.665 5.70807C224.497 6.5255 228.27 6.96341 232.088 7.9852C234.391 8.1695 236.668 8.60515 238.877 9.28436C246.337 11.3717 253.971 12.7877 261.519 14.5247L280.459 18.7578L278.595 25.4725C278.325 26.8016 277.975 28.113 277.545 29.3991C277.006 30.7712 276.613 32.6542 276.161 34.3037C275.71 35.9532 275.375 37.4275 274.894 38.8434C272.854 44.6822 271.426 50.7108 269.736 56.6518C268.046 62.5928 266.37 68.5046 264.841 74.431C263.894 78.051 263.107 81.7295 262.029 85.3204C261.697 86.9169 261.209 88.4767 260.572 89.9769C260.353 90.3856 260.222 91.9037 259.96 92.8963L257.905 100.341L256.798 104.311L247.925 103.289C245.769 103.056 243.554 102.968 241.441 102.749C239.329 102.53 236.896 102.253 234.637 101.961L226.085 100.749C223.171 100.355 219.995 100.166 217.168 99.6693C211.923 98.7351 206.619 98.2826 201.345 97.6257L193.477 96.6769L185.318 95.7719L184.182 94.9545L183.308 94.2976L181.618 92.9692C180.496 92.0788 179.388 91.203 178.208 90.3563C177.028 89.5097 176.125 87.7435 176.751 87.8165C176.938 87.8498 177.116 87.9192 177.276 88.0209C179.887 89.3766 182.413 90.8927 184.837 92.5605L186.178 93.5385L198.315 95.042Z" fill="black"/>
<path d="M246.088 65.2338C243.553 64.7083 241.003 64.2557 238.453 63.847C237.496 63.6364 236.519 63.5288 235.539 63.5259C235.029 63.5259 234.155 63.1464 233.266 63.0442C230.877 62.7523 228.488 62.3728 226.083 62.1392C223.679 61.9056 221.407 61.7743 219.061 61.5553C216.715 61.3364 214.369 61.0298 212.126 61.0298C210.173 61.0298 208.439 60.6795 206.589 60.6065C204.739 60.5335 202.582 60.4897 200.659 60.3L199.697 60.2124H199.217H198.415C197.308 60.2124 196.244 60.1102 195.123 60.0956L195.472 59.6431C195.909 59.0592 196.303 58.5045 196.74 57.8915L197.439 56.928L197.891 56.3296C198.521 55.6855 199.047 54.9468 199.45 54.14C199.584 53.9554 199.74 53.7886 199.916 53.6437C200.656 52.9924 201.308 52.2465 201.854 51.425C202.273 50.817 202.73 50.2368 203.223 49.6879C204.506 48.1406 205.933 46.7685 207.361 45.3088C207.9 44.7833 208.425 44.2578 208.993 43.7615L210.727 42.3018C211.31 41.7763 211.907 41.2216 212.49 40.6669C213.065 40.1352 213.678 39.6473 214.326 39.2072C215.579 38.419 216.628 37.514 217.866 36.7695C218.599 36.3976 219.264 35.904 219.833 35.3098C219.959 35.1895 220.108 35.0953 220.27 35.0325C221.372 34.6374 222.427 34.1235 223.417 33.4998C224.476 32.9508 225.566 32.4635 226.681 32.0401C227.89 31.7773 229.114 31.4416 230.352 31.2226C231.613 31.0089 232.892 30.9257 234.17 30.9745C234.854 31.0255 235.54 31.0255 236.224 30.9745C236.656 30.984 237.084 31.0629 237.492 31.208C239.35 31.768 241.151 32.5061 242.868 33.4122C243.815 33.9669 244.704 34.6237 245.607 35.2514C246.461 35.9271 247.242 36.6903 247.938 37.5285C248.619 38.3879 249.38 39.1798 250.211 39.8933C250.768 40.4574 251.256 41.0844 251.668 41.7617C252.047 42.2726 252.528 42.7105 252.877 43.2214C253.227 43.7323 253.358 44.214 253.606 44.6811C253.679 44.8398 253.767 44.9913 253.868 45.1336C255.501 47.7986 256.83 50.6384 257.831 53.5999C259.018 56.534 259.945 59.5674 260.599 62.6647C261.054 64.2266 261.11 65.8782 260.76 67.4671C260.556 68.0364 260.308 67.978 260.148 67.292C259.988 66.6059 259.827 66.1826 259.696 65.5987C259.507 64.6499 259.244 63.7157 258.982 62.8107C258.472 60.913 257.7 59.103 257.19 57.1324C256.929 56.5493 256.762 55.9285 256.695 55.2932C256.672 55.1417 256.628 54.9942 256.564 54.8553C255.311 52.4468 254.378 49.7901 253.052 47.3816C251.865 45.4086 250.576 43.4987 249.191 41.6595C248.655 41.2265 248.167 40.7371 247.734 40.1998C247.253 39.7181 246.802 39.1926 246.394 38.7401C244.911 37.0426 243.109 35.6539 241.09 34.6529C240.092 34.1614 239.054 33.7561 237.987 33.4414L236.37 33.1202L235.554 32.9597H234.723C230.104 32.7988 225.541 34.0128 221.611 36.4484C220.897 36.7841 220.445 37.3534 219.6 37.7329C218.705 38.2049 217.86 38.7674 217.079 39.4116C216.336 39.9955 215.622 40.6377 214.865 41.134C213.364 42.2234 211.942 43.4185 210.61 44.7103C209.255 45.9803 208.031 47.3962 206.706 48.6953C204.152 51.3727 201.754 54.1945 199.523 57.147L199.013 57.8185L198.896 57.9936V58.0812C198.839 58.1739 198.79 58.2716 198.75 58.3731H199.129H199.464H200.339C201.317 58.348 202.295 58.4362 203.253 58.6359C203.854 58.6687 204.457 58.6687 205.059 58.6359C206.618 58.6359 208.177 58.8257 209.736 58.9133L216.22 59.3949C217.546 59.4971 218.857 59.4971 220.183 59.5993C221.509 59.7015 222.951 59.8474 224.321 60.0226L229.551 60.7671C231.358 61.0444 233.252 61.1466 234.957 61.5261C236.661 61.9056 238.133 62.1538 239.721 62.4165L244.5 63.2632C247.647 63.9054 250.794 64.5769 253.926 65.3213C255.719 65.6863 257.248 66.4015 258.968 66.8832C259.769 67.1022 260.643 68.0364 260.25 68.1532C260.134 68.1764 260.016 68.1764 259.9 68.1532C258.139 67.9421 256.393 67.6252 254.67 67.2044L250.401 66.1534L246.088 65.2338Z" fill="black"/>
<path d="M105.214 137.708C106.277 137.606 107.355 137.562 108.404 137.416C108.798 137.416 109.22 137.548 109.599 137.037C109.789 136.789 110.211 137.314 110.575 137.27C111.566 137.11 112.571 137.11 113.489 136.978C114.407 136.847 115.398 136.555 116.403 136.424C116.884 136.351 117.365 136.424 117.86 136.336H118.501C118.523 136.318 118.54 136.296 118.553 136.271C118.565 136.246 118.573 136.218 118.574 136.19C118.574 136.073 118.574 136.117 118.72 136.19C118.866 136.263 118.997 136.321 118.997 136.263C118.807 136.044 118.749 136.029 118.909 135.927C118.977 135.869 119.028 135.793 119.055 135.708C119.055 135.708 119.055 135.533 119.055 135.402C119.005 135.262 118.936 135.129 118.851 135.008C118.662 134.701 118.268 134.497 118.137 134.132C118.006 133.767 118.137 133.314 117.423 133.241C117.423 133.241 117.423 133.052 117.423 132.935C117.509 132.73 117.516 132.5 117.443 132.291C117.371 132.081 117.223 131.905 117.03 131.796C116.763 131.622 116.566 131.358 116.476 131.052C116.126 130.307 115.777 129.592 115.5 128.789C115.223 127.987 115.252 127.563 115.063 126.979C114.873 126.395 114.363 125.841 114.378 125.198C114.345 124.604 114.191 124.023 113.926 123.491C113.795 123.199 113.926 122.732 113.256 122.717C113.256 122.717 113.154 122.586 113.169 122.527C113.475 121.359 112.222 120.892 112.018 119.944C111.729 118.987 111.343 118.063 110.867 117.185C110.75 116.937 110.794 116.615 110.328 116.557C110.241 116.525 110.168 116.464 110.12 116.384C110.072 116.305 110.053 116.211 110.065 116.119C110.299 115.214 109.672 114.659 109.468 113.9C109.264 113.141 108.638 112.441 108.696 111.404C108.733 111.162 108.679 110.914 108.544 110.71C108.409 110.505 108.204 110.357 107.967 110.295C107.661 110.207 107.72 109.726 107.545 109.448C107.37 109.171 107.079 109.098 106.977 108.864C106.875 108.631 106.977 108.383 106.977 108.135C106.978 108.098 106.97 108.062 106.955 108.029C106.94 107.996 106.917 107.967 106.889 107.945C105.855 107.011 106.073 105.551 105.432 104.441C104.819 103.312 104.307 102.13 103.902 100.909C103.731 100.543 103.674 100.134 103.739 99.7357C103.804 99.3371 103.988 98.9675 104.267 98.6756C104.394 98.4945 104.575 98.3577 104.784 98.2844C104.993 98.2112 105.22 98.205 105.432 98.2669C105.713 98.3518 105.962 98.5197 106.146 98.7486L106.889 99.7266C107.37 100.413 108.113 100.967 108.23 101.843C108.23 102.121 108.623 102.296 108.302 102.675C108.276 102.702 108.261 102.739 108.261 102.777C108.261 102.816 108.276 102.852 108.302 102.88C109.381 103.639 109.424 104.894 109.92 105.93C110.415 106.967 111.231 107.39 111.377 108.456C111.662 108.578 111.905 108.782 112.076 109.041C112.247 109.301 112.338 109.605 112.338 109.915C112.768 111.808 113.449 113.634 114.363 115.345C115.063 117.185 115.908 118.951 116.651 120.776C116.782 121.082 117.175 121.213 117.117 121.681C117.059 122.148 117.394 122.469 117.569 122.863C117.775 123.195 117.923 123.561 118.006 123.943C118.272 125.481 118.8 126.962 119.565 128.322C120.074 129.771 120.688 131.181 121.401 132.541C121.619 132.95 121.896 133.344 122.144 133.738L122.333 134.044C122.333 134.132 122.435 134.234 122.537 134.468C122.723 134.853 122.889 135.247 123.033 135.65C123.251 136.278 123.936 137.11 123.557 137.577C123.441 137.664 124.213 138.453 124.431 138.92L124.796 139.737L122.158 139.956L119.74 140.146L118.662 140.248L118.006 140.336C117.467 140.409 116.942 140.671 116.418 140.774C115.855 140.873 115.285 140.922 114.713 140.92C113.985 140.92 113.256 140.788 112.542 140.803C111.803 140.941 111.049 140.985 110.298 140.934C108.976 140.761 107.636 140.786 106.321 141.007C105.004 141.043 103.69 141.16 102.387 141.357C101.644 141.489 100.93 141.109 100.202 141.168C99.8665 141.168 99.2983 139.941 99.4003 139.489C99.4146 139.405 99.4554 139.329 99.5168 139.27C100.202 138.803 100.799 138.102 101.615 138.073C102.795 137.956 104.019 137.81 105.214 137.708Z" fill="black"/>
<path d="M175.307 139.679C174.215 139.592 173.122 139.46 172.029 139.431C171.621 139.431 171.213 139.154 170.762 139.592C170.528 139.811 170.179 139.212 169.8 139.212C168.78 139.212 167.76 139.022 166.74 138.993H164.963C164.074 138.993 163.127 138.993 162.195 138.92C161.262 138.847 160.432 138.76 159.601 138.672C159.994 137.885 160.302 137.058 160.519 136.205C160.724 135.49 161.018 134.803 161.393 134.162L161.903 133.198C162.011 133.02 162.094 132.829 162.151 132.629C162.345 131.804 162.691 131.021 163.171 130.323C163.583 129.876 163.9 129.349 164.103 128.775C164.191 128.41 164.103 127.987 164.249 127.622C164.395 127.257 164.803 126.994 164.424 126.469C164.424 126.469 164.555 126.308 164.657 126.265C164.863 126.175 165.032 126.018 165.135 125.818C165.238 125.619 165.27 125.39 165.225 125.17C165.17 124.845 165.226 124.51 165.385 124.221C165.678 123.43 166.014 122.655 166.391 121.9C166.667 121.331 167.105 120.849 167.411 120.28C167.716 119.711 167.76 118.966 168.241 118.514C168.665 118.072 168.988 117.545 169.188 116.966C169.319 116.645 169.713 116.382 169.305 115.915C169.305 115.915 169.305 115.755 169.392 115.711C170.441 115.112 169.931 113.857 170.485 113.025C170.995 112.137 171.41 111.198 171.723 110.222C171.825 109.96 172.102 109.755 171.825 109.376C171.786 109.289 171.779 109.192 171.805 109.1C171.832 109.009 171.891 108.931 171.971 108.88C172.787 108.398 172.787 107.537 173.18 106.851C173.574 106.164 173.734 105.157 174.491 104.515C174.694 104.368 174.837 104.153 174.893 103.908C174.949 103.664 174.915 103.408 174.797 103.187C174.666 102.895 175.06 102.588 175.133 102.267C175.205 101.946 175.133 101.669 175.133 101.435C175.133 101.201 175.497 101.099 175.672 100.924C175.7 100.899 175.723 100.867 175.738 100.832C175.753 100.796 175.76 100.758 175.759 100.72C175.759 99.2601 176.968 98.428 177.333 97.1727C177.732 95.9103 178.249 94.6885 178.877 93.5234C179.022 93.1376 179.281 92.8051 179.619 92.5704C179.958 92.3357 180.36 92.2099 180.771 92.2097C180.991 92.1702 181.217 92.2028 181.417 92.3028C181.616 92.4027 181.778 92.5647 181.878 92.7644C181.991 93.0417 182.036 93.342 182.009 93.6402L181.791 94.8809C181.783 95.7528 181.563 96.6095 181.15 97.377C180.96 97.596 181.15 97.9901 180.582 98.0193C180.546 98.0229 180.512 98.0399 180.488 98.0669C180.464 98.0939 180.45 98.129 180.451 98.1653C180.64 99.5082 179.737 100.442 179.329 101.537C178.921 102.632 179.096 103.595 178.469 104.457C178.58 104.755 178.6 105.08 178.524 105.39C178.449 105.7 178.283 105.98 178.046 106.194C176.951 107.863 176.079 109.669 175.453 111.565C174.579 113.39 173.85 115.273 173.034 117.112C172.889 117.419 173.034 117.813 172.685 118.09C172.335 118.368 172.291 118.864 172.117 119.273C172.029 119.668 171.86 120.041 171.621 120.367C170.682 121.658 169.959 123.092 169.479 124.615C168.782 126.038 168.169 127.5 167.644 128.994C167.45 129.942 167.157 130.867 166.769 131.753C166.565 132.118 166.667 132.629 166.026 132.789C165.837 132.789 166.026 133.359 166.026 133.607C166.026 133.855 165.793 134.22 165.662 134.527L165.575 134.745V134.833C165.495 134.959 165.436 135.097 165.4 135.242C165.58 135.185 165.747 135.096 165.895 134.979C165.895 134.979 165.793 134.979 166.216 134.979C166.944 135.11 167.673 135.359 168.401 135.475C169.166 135.449 169.931 135.527 170.674 135.709C171.989 136.101 173.353 136.303 174.725 136.307C176.068 136.489 177.42 136.592 178.775 136.614C179.547 136.614 180.232 137.11 180.96 137.169C181.31 137.169 181.674 138.526 181.485 138.964C181.461 139.043 181.409 139.111 181.339 139.154C180.567 139.504 179.882 140.103 179.008 139.986C177.799 139.825 176.546 139.767 175.307 139.679Z" fill="black"/>
<path d="M216.556 140.526C215.507 140.453 214.458 140.351 213.423 140.351C213.03 140.351 212.651 140.088 212.214 140.54C211.995 140.759 211.66 140.175 211.296 140.175C210.32 140.175 209.344 140.029 208.382 140.029C207.42 140.029 206.473 140.161 205.468 140.146C204.463 140.132 203.749 140.015 202.904 139.942C202.012 139.867 201.115 139.867 200.223 139.942C199.7 139.996 199.173 139.996 198.649 139.942C199.187 139.141 199.673 138.308 200.106 137.446C200.369 136.804 200.645 136.132 200.981 135.461C201.155 135.11 201.33 134.775 201.52 134.453L201.811 133.972C201.869 133.877 201.937 133.788 202.015 133.709C202.448 133.301 202.786 132.802 203.006 132.249C203.108 131.914 203.006 131.49 203.195 131.154C203.385 130.819 203.778 130.585 203.414 130.06C203.414 130.06 203.545 129.914 203.661 129.885C203.87 129.817 204.046 129.677 204.159 129.489C204.271 129.301 204.312 129.078 204.273 128.863C204.232 128.553 204.299 128.238 204.463 127.972C204.789 127.238 205.154 126.522 205.556 125.827C205.861 125.301 206.313 124.863 206.634 124.367C206.954 123.871 207.042 123.112 207.552 122.717C207.99 122.314 208.329 121.815 208.542 121.258C208.688 120.966 209.081 120.747 208.703 120.25C208.703 120.25 208.703 120.105 208.79 120.075C209.868 119.579 209.417 118.324 209.999 117.579C210.538 116.759 210.987 115.883 211.34 114.966C211.456 114.733 211.733 114.558 211.471 114.163C211.439 114.078 211.439 113.983 211.471 113.897C211.503 113.811 211.565 113.74 211.646 113.696C212.462 113.302 212.505 112.47 212.928 111.857C213.35 111.244 213.554 110.266 214.385 109.697C214.592 109.572 214.745 109.373 214.812 109.141C214.88 108.908 214.857 108.658 214.749 108.441C214.618 108.164 215.026 107.901 215.113 107.595C215.201 107.288 215.113 107.026 215.113 106.792C215.113 106.558 215.492 106.5 215.682 106.354C215.71 106.331 215.732 106.302 215.748 106.27C215.763 106.237 215.77 106.201 215.769 106.164C215.769 104.792 217.066 104.048 217.474 102.865C217.931 101.691 218.497 100.562 219.164 99.4935C219.333 99.1296 219.609 98.8266 219.956 98.6255C220.303 98.4245 220.702 98.3351 221.102 98.3695C221.322 98.3525 221.542 98.4035 221.732 98.5158C221.922 98.628 222.073 98.7961 222.165 98.9972C222.271 99.266 222.301 99.5589 222.253 99.8438L221.99 101.026C221.786 101.814 221.845 102.734 221.247 103.362C221.058 103.566 221.16 103.96 220.664 103.946C220.629 103.948 220.596 103.963 220.569 103.986C220.543 104.01 220.525 104.042 220.519 104.077C220.65 105.376 219.717 106.194 219.266 107.23C218.814 108.266 218.945 109.186 218.304 109.93C218.407 110.222 218.414 110.54 218.325 110.836C218.236 111.133 218.055 111.393 217.809 111.58C216.65 113.095 215.699 114.76 214.982 116.528C214.05 118.207 213.248 119.959 212.36 121.666C212.199 121.958 212.36 122.352 211.966 122.586C211.573 122.82 211.558 123.301 211.369 123.681C211.251 124.046 211.068 124.387 210.83 124.688C209.844 125.85 209.066 127.173 208.528 128.6C207.771 129.903 207.099 131.253 206.517 132.643C206.285 133.539 205.953 134.406 205.526 135.227C205.457 135.356 205.403 135.494 205.366 135.636C205.366 135.636 205.366 135.636 205.002 135.636C204.638 135.636 205.206 135.782 205.22 135.796C205.235 135.811 205.133 135.986 205.089 136.088C205.234 136.11 205.382 136.11 205.526 136.088C205.596 136.063 205.657 136.017 205.701 135.957C205.711 135.924 205.711 135.888 205.701 135.855H206.109C206.665 135.842 207.221 135.881 207.77 135.971C208.484 136.074 209.227 136.307 209.868 136.409C210.602 136.369 211.338 136.433 212.054 136.599C213.313 136.964 214.619 137.136 215.929 137.11C217.211 137.263 218.5 137.336 219.79 137.329C220.533 137.329 221.16 137.811 221.874 137.84C222.209 137.84 222.588 139.197 222.413 139.635C222.385 139.712 222.334 139.779 222.267 139.825C221.539 140.19 220.81 140.803 220.067 140.701C218.931 140.628 217.736 140.599 216.556 140.526Z" fill="black"/>
<path d="M22.9364 21.1218C22.9509 20.9762 22.9509 20.8295 22.9364 20.6839C22.9364 20.6839 23.0239 20.5671 22.8199 20.5233C22.6159 20.4795 22.951 20.4357 22.951 20.392C22.951 20.3482 22.951 20.1146 22.951 19.9832C22.951 19.8519 22.849 19.7205 22.8345 19.5891C22.8199 19.4578 22.8345 19.3264 22.8345 19.195C22.8345 19.0636 22.9073 18.9906 22.8345 18.8885C22.8019 18.8386 22.7845 18.7802 22.7845 18.7206C22.7845 18.661 22.8019 18.6026 22.8345 18.5527C22.8345 18.4797 22.9656 18.4068 22.9364 18.3192C22.9073 18.2316 22.8053 18.2316 22.8053 18.1732C22.8053 18.1148 22.9073 18.071 22.6887 18.0126C22.8344 18.0126 22.8344 17.8959 22.6887 17.8521C22.543 17.8083 22.6013 17.7645 22.6013 17.7207C22.5941 17.6089 22.5941 17.4968 22.6013 17.385C22.6013 17.2974 22.7179 17.2244 22.747 17.1368C22.7762 17.0492 22.747 16.9617 22.747 16.8887C22.7875 16.8658 22.8202 16.8313 22.8409 16.7897C22.8617 16.7481 22.8696 16.7012 22.8636 16.6551C22.8636 16.6551 22.9656 16.5675 22.747 16.5091C23.053 16.407 22.747 16.2464 22.747 16.1296C22.747 16.0129 22.747 15.8523 22.747 15.7209C22.747 15.5896 22.8199 15.6479 22.6596 15.5895C22.4993 15.5311 22.6596 15.5895 22.6596 15.5165C22.6596 15.4436 22.7762 15.3268 22.8345 15.2246C22.8927 15.1224 22.8345 14.9765 22.9947 14.8889C23.155 14.8013 23.1258 14.7867 22.9219 14.6845C22.7179 14.5823 22.9219 14.6115 22.9219 14.5531C22.9219 14.4947 22.8199 14.4656 22.8345 14.4364C22.849 14.4072 22.9219 14.4364 22.9656 14.3634C22.9656 14.3634 23.1258 14.0277 23.0967 13.8379C23.0898 13.6492 23.1351 13.4622 23.2278 13.2978C23.2278 13.2102 23.3735 13.1226 23.7669 13.181C23.932 13.2006 24.0909 13.2554 24.2332 13.3416C24.2926 13.3832 24.3465 13.4322 24.3934 13.4875V13.6627C24.3934 13.7941 24.5828 13.9255 24.3934 14.0131C24.204 14.1006 24.3934 14.1006 24.2769 14.0131C24.51 14.2174 24.2769 14.3196 24.2769 14.4656C24.2769 14.6115 24.4808 14.7429 24.3643 14.8451C24.5683 14.9473 24.51 15.0203 24.3643 15.0787C24.2186 15.137 24.2186 15.5604 24.1603 15.8085C24.102 16.0567 24.1603 16.3048 24.0729 16.5529C23.9855 16.8011 24.1894 16.6405 24.0729 16.6843C23.9563 16.7281 24.0729 16.8011 24.0729 16.8449C24.0729 16.8887 24.0729 16.9616 24.0729 17.0054C24.0729 17.0492 23.9418 17.3996 23.9126 17.5893C23.8763 17.7921 23.8763 17.9997 23.9126 18.2024C23.9126 18.3192 24.0729 18.4506 24.0146 18.5673C23.9563 18.6841 24.1166 18.6695 23.898 18.7279C23.6795 18.7863 24 18.7279 24.0146 18.8301C24.0216 18.9126 24.0216 18.9957 24.0146 19.0782C24.0073 19.1949 24.0073 19.3119 24.0146 19.4285C24.0146 19.5015 24.1166 19.5599 24.1457 19.6329C24.1603 19.7101 24.1603 19.7893 24.1457 19.8665C24.1007 19.9562 24.0618 20.0489 24.0292 20.1438C24.0292 20.246 24.0292 20.3482 24.0292 20.4357C24.0292 20.5233 24.0292 20.7861 23.9418 20.9613C23.9056 21.1346 23.9056 21.3134 23.9418 21.4867C23.9418 21.5743 23.7961 21.6765 23.7961 21.7641C23.5788 21.8531 23.346 21.8978 23.1113 21.8955H23.0239C22.849 21.8079 22.5868 21.7349 22.6013 21.6181C22.7402 21.4728 22.8535 21.305 22.9364 21.1218Z" fill="black"/>
<path d="M29.0414 21.6035C29.0485 21.4819 29.0485 21.3601 29.0414 21.2385C29.0414 21.2385 29.1288 21.1364 28.9394 21.0926C28.75 21.0488 29.056 21.0196 29.056 20.9758C29.056 20.932 29.056 20.7568 29.056 20.6401C29.056 20.5233 28.954 20.4211 28.9248 20.3043C28.8957 20.1875 29.0122 20.0854 28.9248 19.9832C28.8374 19.881 28.9977 19.808 28.9248 19.7204C28.852 19.6329 28.9248 19.5307 28.9248 19.4577C28.9248 19.3847 29.0705 19.3263 29.0414 19.2679C29.0122 19.2096 28.8957 19.1804 28.9103 19.1366C28.9248 19.0928 29.0122 19.049 28.7937 19.0052C28.9394 19.0052 28.9394 18.9176 28.7937 18.8738C28.648 18.83 28.7209 18.8738 28.7209 18.7716C28.6986 18.6805 28.6986 18.5854 28.7209 18.4943C28.7209 18.4943 28.8374 18.3629 28.852 18.3045C28.8665 18.2461 28.852 18.144 28.852 18.0856C28.8892 18.0735 28.9218 18.0502 28.9453 18.0189C28.9688 17.9875 28.982 17.9496 28.9831 17.9104C28.9831 17.9104 29.0851 17.8374 28.8665 17.7936C29.1725 17.7936 28.8665 17.5747 28.8665 17.4871C28.9032 17.3782 28.9032 17.2602 28.8665 17.1513C28.8665 17.1513 28.8665 17.1514 28.7791 17.0638C28.7791 17.0638 28.8811 16.9032 28.9248 16.8302C28.9685 16.7572 28.9248 16.6258 29.0705 16.5529C29.2162 16.4799 29.1871 16.4653 29.0705 16.3923C28.954 16.3193 29.0705 16.3923 29.0705 16.2901C29.0705 16.1879 28.9685 16.2171 28.9685 16.1879C28.9685 16.1587 29.056 16.1879 29.0851 16.1879C28.8666 16.0128 29.1871 15.9252 29.0851 15.7792C29.0349 15.6426 29.0349 15.4926 29.0851 15.3559C29.0851 15.283 29.1871 15.21 29.595 15.21C29.764 15.2102 29.9316 15.2398 30.0904 15.2975L30.2653 15.3997L30.3527 15.5457C30.3527 15.6332 30.5858 15.75 30.4692 15.823C30.3527 15.896 30.4692 15.896 30.3527 15.896C30.6004 16.0566 30.3527 16.1587 30.3527 16.2755C30.3527 16.3923 30.5712 16.5091 30.4547 16.6113C30.6732 16.6988 30.6295 16.7572 30.5566 16.801C30.4838 16.8448 30.4255 17.2097 30.3818 17.4141C30.3381 17.6184 30.3818 17.8228 30.2944 18.0418C30.207 18.2607 30.4255 18.1147 30.2944 18.1439C30.1633 18.1731 30.2944 18.2316 30.2944 18.2754C30.2944 18.3191 30.2944 18.3629 30.2944 18.4067C30.2944 18.4505 30.1778 18.7278 30.1341 18.8884C30.0979 19.0469 30.0979 19.2116 30.1341 19.3701C30.1341 19.4723 30.2798 19.5745 30.2361 19.6767C30.1924 19.7788 30.3235 19.7642 30.1196 19.7934C29.9156 19.8226 30.2215 19.7934 30.2215 19.881C30.2288 19.9489 30.2288 20.0174 30.2215 20.0854C30.2143 20.1777 30.2143 20.2704 30.2215 20.3627C30.2215 20.3627 30.3235 20.4795 30.3381 20.5379C30.3521 20.5649 30.3595 20.595 30.3595 20.6255C30.3595 20.6559 30.3521 20.686 30.3381 20.713C30.3381 20.786 30.2507 20.859 30.2215 20.932C30.1924 21.005 30.309 21.0779 30.2215 21.1509C30.1341 21.2239 30.2215 21.4283 30.2215 21.5597C30.1843 21.6834 30.1843 21.8154 30.2215 21.9392C30.2215 21.9392 30.105 22.0997 30.1196 22.1581C29.9065 22.263 29.6814 22.3415 29.4493 22.3917C29.2745 22.3917 28.9977 22.3187 28.9977 22.2165C28.9977 22.1143 29.0559 21.7494 29.0414 21.6035Z" fill="black"/>
<path d="M296.092 21.1209C296.107 20.9656 296.107 20.8092 296.092 20.6538C296.092 20.6538 296.165 20.5225 295.961 20.4933C295.757 20.4641 296.078 20.3911 296.063 20.3327C296.049 20.2743 296.063 20.0408 295.99 19.8948C295.917 19.7488 295.859 19.6321 295.816 19.5007C295.772 19.3693 295.816 19.1941 295.728 19.0774C295.641 18.9606 295.728 18.8438 295.728 18.7416C295.696 18.6889 295.679 18.6283 295.679 18.5665C295.679 18.5046 295.696 18.444 295.728 18.3913C295.728 18.2891 295.845 18.2016 295.728 18.1286C295.612 18.0556 295.582 18.041 295.582 17.9826C295.582 17.9242 295.655 17.8512 295.437 17.8512C295.437 17.8512 295.539 17.6906 295.437 17.6614C295.335 17.6323 295.335 17.6614 295.32 17.5593C295.306 17.4429 295.306 17.3253 295.32 17.2089C295.32 17.1068 295.32 17.0046 295.32 16.917C295.32 16.8294 295.204 16.7418 295.32 16.6396C295.342 16.5993 295.353 16.5541 295.353 16.5083C295.353 16.4624 295.342 16.4173 295.32 16.3769C295.32 16.3769 295.393 16.2455 295.16 16.2601C295.408 16.0558 295.014 16.012 295.043 15.866C295.059 15.7192 295.029 15.5711 294.956 15.4427C294.956 15.4427 294.956 15.3551 294.839 15.3551C294.723 15.3551 294.752 15.3551 294.839 15.3551C294.927 15.3551 294.839 15.1216 294.839 15.0048C294.839 14.888 294.723 14.7858 294.839 14.6107C294.956 14.4355 294.912 14.4647 294.694 14.4647C294.475 14.4647 294.694 14.3771 294.694 14.3333C294.694 14.2895 294.562 14.3333 294.548 14.3333C294.533 14.3333 294.548 14.2457 294.635 14.202C294.359 14.1144 294.635 13.837 294.475 13.691C294.37 13.5449 294.305 13.3739 294.286 13.1948C294.286 13.1072 294.286 12.9904 294.621 12.7568C294.754 12.6583 294.909 12.5932 295.072 12.5671C295.143 12.5401 295.221 12.5401 295.291 12.5671L295.466 12.6838C295.582 12.7714 295.801 12.8298 295.757 12.9904C295.714 13.1509 295.859 12.9904 295.757 13.1364C296.078 13.2093 295.976 13.4429 296.049 13.6035C296.121 13.764 296.369 13.8078 296.311 13.983C296.559 13.983 296.544 14.1143 296.5 14.2165C296.369 14.5669 296.588 14.8004 296.631 15.0924C296.675 15.3843 296.777 15.6762 296.835 15.9682C296.835 15.9682 296.966 16.0412 296.835 16.1142C296.704 16.1871 296.835 16.2455 296.835 16.3039C296.835 16.3623 296.908 16.4207 296.835 16.4791C296.763 16.5375 296.835 16.9608 296.835 17.1943C296.834 17.4247 296.878 17.653 296.966 17.8658C296.966 17.9972 297.171 18.114 297.141 18.2745C297.112 18.4351 297.272 18.3767 297.068 18.4643C296.865 18.5519 297.185 18.4643 297.185 18.5665C297.199 18.6584 297.199 18.7519 297.185 18.8438C297.195 18.9774 297.22 19.1095 297.258 19.2379C297.258 19.3255 297.374 19.3839 297.404 19.4715C297.426 19.5527 297.426 19.6384 297.404 19.7196C297.404 19.8364 297.331 19.9532 297.316 20.0553C297.302 20.1575 297.433 20.2743 297.316 20.3911C297.2 20.5079 297.316 20.7998 297.316 21.0042C297.317 21.2068 297.346 21.4084 297.404 21.6027C297.404 21.7049 297.272 21.8216 297.272 21.9384C297.057 22.0367 296.824 22.0913 296.588 22.099H296.573C296.398 22.0114 296.136 21.9384 296.136 21.8216C296.147 21.5872 296.132 21.3522 296.092 21.1209Z" fill="black"/>
<path d="M290.016 22.0413C290.03 21.9249 290.03 21.8073 290.016 21.691C290.016 21.691 290.016 21.5888 289.9 21.5596C289.783 21.5304 290.016 21.4866 290.002 21.4428C290.009 21.3261 290.009 21.2092 290.002 21.0925C290.002 20.9903 289.871 20.8881 289.842 20.7859C289.812 20.6837 289.842 20.5378 289.754 20.4502C289.667 20.3626 289.754 20.2605 289.754 20.1875C289.725 20.1443 289.71 20.0935 289.71 20.0415C289.71 19.9895 289.725 19.9387 289.754 19.8955C289.754 19.8225 289.871 19.735 289.754 19.6766C289.638 19.6182 289.609 19.6766 289.609 19.5744C289.609 19.4722 289.696 19.4576 289.463 19.4722C289.608 19.3992 289.579 19.3408 289.463 19.3262C289.346 19.3116 289.361 19.3262 289.346 19.2386C289.331 19.1419 289.331 19.0435 289.346 18.9467C289.352 18.869 289.352 18.7909 289.346 18.7132C289.346 18.6402 289.244 18.5818 289.346 18.4796C289.369 18.4476 289.381 18.4093 289.381 18.3701C289.381 18.3309 289.369 18.2927 289.346 18.2607C289.346 18.2607 289.419 18.1585 289.186 18.1731C289.448 17.9979 289.04 17.9833 289.084 17.8519C289.128 17.7206 289.084 17.6184 289.084 17.5016C289.084 17.3848 289.084 17.4286 288.953 17.5016C288.953 17.5016 288.953 17.2973 288.953 17.2097C288.953 17.1221 288.836 17.0199 288.953 16.8739C289.069 16.728 289.04 16.7426 288.822 16.7572C288.603 16.7718 288.822 16.6842 288.822 16.6404C288.822 16.5966 288.691 16.6404 288.676 16.6404C288.661 16.6404 288.749 16.6404 288.778 16.5382C288.516 16.4652 288.778 16.2317 288.676 16.1003C288.588 15.9723 288.546 15.8175 288.559 15.6624C288.559 15.5748 288.559 15.4726 288.967 15.312C289.114 15.2402 289.272 15.1957 289.434 15.1807H289.638L289.798 15.2975C289.885 15.3705 290.089 15.4142 290.031 15.5456C289.973 15.677 290.118 15.5456 289.944 15.6624C290.25 15.6624 290.118 15.9105 290.162 16.0419C290.206 16.1733 290.454 16.2025 290.395 16.3485C290.628 16.3485 290.614 16.436 290.556 16.5236C290.497 16.6112 290.556 17.0053 290.628 17.2389C290.701 17.4724 290.745 17.706 290.789 17.9395C290.832 18.1731 290.92 17.9395 290.789 18.0563C290.658 18.1731 290.789 18.1585 290.789 18.2169C290.789 18.2753 290.789 18.3045 290.789 18.3629C290.789 18.4212 290.789 18.7424 290.789 18.9321C290.796 19.1239 290.84 19.3123 290.92 19.4868C290.92 19.589 291.124 19.6766 291.095 19.8079C291.065 19.9393 291.211 19.8079 291.007 19.9685C290.803 20.1291 291.124 19.9685 291.138 20.0415C291.145 20.1192 291.145 20.1974 291.138 20.2751C291.131 20.3869 291.131 20.499 291.138 20.6108C291.138 20.6108 291.269 20.7275 291.299 20.7859C291.313 20.8582 291.313 20.9326 291.299 21.0049C291.299 21.0925 291.226 21.1947 291.211 21.2968C291.197 21.399 291.313 21.472 291.211 21.5742C291.109 21.6764 291.211 21.9245 291.138 22.0997C291.11 22.2737 291.11 22.4512 291.138 22.6252C291.138 22.7273 290.978 22.8149 290.978 22.9025C290.978 22.9901 290.454 22.9025 290.279 22.9025H290.191C290.031 22.8003 289.783 22.7274 289.798 22.6398C289.906 22.4551 289.98 22.2523 290.016 22.0413Z" fill="black"/>
<path d="M261.169 97.1583C260.513 96.297 259.93 95.392 259.318 94.4432C259.085 94.0783 259.1 93.5966 258.473 93.3485C258.167 93.2171 258.473 92.6186 258.313 92.0055C258.039 91.2708 258.023 90.4648 258.267 89.7195C258.51 88.9743 258.999 88.334 259.654 87.9037C259.977 87.6931 260.324 87.5216 260.688 87.3928C261.023 87.2615 261.198 87.2323 261.475 87.1447C261.97 86.9841 262.466 86.8235 262.932 86.7068C263.865 86.6169 264.785 86.416 265.671 86.1083C266.356 85.7142 267.128 86.0207 267.813 85.7726C268.522 85.467 269.285 85.3081 270.056 85.3055C270.608 85.3952 271.173 85.3501 271.703 85.1741C272.009 85.0427 272.242 84.6924 272.592 84.6194C272.941 84.5464 273.364 84.6194 273.48 84.0647C273.48 84.0647 273.67 84.0647 273.757 84.0647C273.841 84.1231 273.936 84.1635 274.036 84.1833C274.137 84.2032 274.24 84.2021 274.34 84.1802C274.44 84.1583 274.534 84.116 274.617 84.0559C274.699 83.9959 274.769 83.9193 274.821 83.8311C274.984 83.5894 275.235 83.4216 275.52 83.3641L277.429 82.5758C277.883 82.4493 278.331 82.2982 278.769 82.1233C279.206 81.8898 279.265 81.4372 279.658 81.3642C280.051 81.2913 280.153 80.9556 280.226 80.6782C280.299 80.4009 280.532 80.2695 279.92 80.1235C279.92 80.1235 279.92 80.0359 279.92 80.0067C280.59 79.2915 279.439 78.8098 279.279 78.1091C279.012 77.2851 278.586 76.5214 278.026 75.8612C277.91 75.6714 277.895 75.3649 277.429 75.4087C277.387 75.4068 277.345 75.3966 277.307 75.3787C277.269 75.3608 277.235 75.3356 277.206 75.3044C277.178 75.2732 277.156 75.2367 277.142 75.197C277.127 75.1573 277.121 75.1151 277.123 75.0729C277.21 74.1971 276.482 73.8322 276.147 73.2191C275.812 72.606 275.039 72.0513 274.835 71.1463C274.81 70.9151 274.695 70.7032 274.515 70.5559C274.335 70.4086 274.105 70.3376 273.874 70.3581C273.568 70.3581 273.495 69.9056 273.262 69.7158C273.029 69.5261 272.723 69.5261 272.562 69.3509C272.402 69.1757 272.446 68.8984 272.388 68.6794C272.329 68.4605 272.315 68.5481 272.256 68.5335C271.033 68.008 270.8 66.6067 269.911 65.8038C269.013 64.9768 268.193 64.0678 267.463 63.0888C267.191 62.8044 267.014 62.4422 266.956 62.0525C266.899 61.6628 266.964 61.2648 267.142 60.9138C267.208 60.7039 267.335 60.5182 267.506 60.3804C267.677 60.2427 267.885 60.1591 268.104 60.1402C268.39 60.1329 268.672 60.2035 268.92 60.3445L269.896 61.0014C270.552 61.4685 271.353 61.7312 271.776 62.4611C271.878 62.6946 272.286 62.7384 272.082 63.1909C272.071 63.224 272.072 63.2599 272.086 63.292C272.099 63.3241 272.124 63.3504 272.154 63.3661C273.393 63.7164 273.801 64.8258 274.559 65.6578C275.316 66.4899 276.219 66.665 276.657 67.5554C276.96 67.5795 277.248 67.698 277.48 67.8944C277.713 68.0907 277.878 68.355 277.953 68.6502C278.696 70.4895 280.183 71.7302 281.202 73.3943C282.454 75.1456 283.341 77.1313 283.81 79.2331C283.81 79.671 284.218 80.0359 283.912 80.6052C283.606 81.1745 283.694 81.8022 283.461 82.3861C283.308 82.9434 283.005 83.4482 282.587 83.8458C281.712 84.488 280.969 84.9405 280.241 85.4077C279.55 85.8601 278.818 86.2462 278.055 86.5608C276.598 87.1155 275.141 87.4659 273.684 88.0205C272.864 88.4433 271.992 88.7573 271.091 88.9547C270.698 88.9547 270.362 89.378 269.867 88.9547C269.736 88.8379 269.459 89.3051 269.226 89.3781C268.629 89.5532 268.017 89.6408 267.405 89.7575C266.56 89.9327 265.715 90.0495 264.884 90.2539C264.345 90.3999 263.937 90.6918 263.544 90.8085C263.109 90.9474 262.659 91.0308 262.203 91.0567C262.203 91.0567 261.926 90.8669 261.824 90.9691C261.722 91.0713 261.824 91.1005 261.824 91.1589C261.824 91.2173 261.824 91.1589 261.824 91.4508C261.824 92.531 262.64 93.4798 263.281 94.4578C263.937 95.4749 264.704 96.415 265.569 97.2605C266.079 97.7422 266.181 98.5158 266.647 98.9975C266.866 99.2311 266.239 100.457 265.831 100.662C265.751 100.688 265.664 100.688 265.583 100.662C264.811 100.443 263.893 100.413 263.383 99.7858C262.713 99.0121 261.912 98.1217 261.169 97.1583Z" fill="black"/>
<path d="M179.854 27.5011C179.286 27.5011 178.717 27.5011 178.164 27.5011C177.945 27.5011 177.727 27.4135 177.508 27.6032C177.289 27.793 177.202 27.4719 176.998 27.4865C176.474 27.4865 175.949 27.4865 175.425 27.4865C174.9 27.4865 174.39 27.5741 173.88 27.6032C173.396 27.5568 172.908 27.5568 172.423 27.6032C172.021 27.6326 171.616 27.6326 171.214 27.6032C170.784 27.6678 170.347 27.6678 169.917 27.6032C169.619 27.519 169.309 27.4845 168.999 27.5011C168.809 27.5618 168.614 27.6057 168.416 27.6324C168.227 27.6324 168.008 27.5303 167.848 27.7492C167.688 27.9682 167.746 27.7492 167.703 27.7492C167.607 27.6882 167.496 27.6558 167.382 27.6558C167.268 27.6558 167.157 27.6882 167.061 27.7492C166.914 27.8261 166.746 27.8566 166.581 27.8368H165.284C164.949 27.8368 164.628 27.7346 164.308 27.72C163.974 27.7569 163.637 27.7569 163.302 27.72C163 27.6294 162.684 27.5948 162.37 27.6179C162.195 27.6179 161.991 27.5157 161.845 27.7346H161.743C161.248 27.4427 160.753 27.8222 160.286 27.7346C159.763 27.698 159.237 27.698 158.713 27.7346C158.567 27.7346 158.422 27.7346 158.29 27.8368C158.251 27.8614 158.206 27.8744 158.159 27.8744C158.113 27.8744 158.067 27.8614 158.028 27.8368C157.635 27.6178 157.227 27.7492 156.819 27.7054C156.36 27.7295 155.9 27.6952 155.449 27.6032C155.336 27.5496 155.211 27.5294 155.087 27.5449C154.963 27.5604 154.846 27.611 154.75 27.6908C154.648 27.793 154.415 27.6908 154.255 27.6908C154.094 27.6908 153.978 27.793 153.847 27.8076C153.724 27.7835 153.605 27.739 153.497 27.6762H153.38C152.725 27.9244 152.055 27.6032 151.384 27.6762C150.705 27.7273 150.023 27.7273 149.344 27.6762C149.148 27.689 148.952 27.6499 148.776 27.5628C148.599 27.4757 148.449 27.3437 148.339 27.1799C148.307 27.1474 148.281 27.1087 148.263 27.0661C148.245 27.0236 148.236 26.9779 148.236 26.9318C148.236 26.8857 148.245 26.84 148.263 26.7974C148.281 26.7549 148.307 26.7162 148.339 26.6836C148.451 26.5949 148.58 26.5303 148.718 26.4939L149.344 26.3917C149.767 26.2523 150.212 26.1977 150.656 26.2311C150.801 26.2311 150.962 26.1581 151.078 26.3333C151.093 26.344 151.111 26.3497 151.129 26.3497C151.148 26.3497 151.165 26.344 151.18 26.3333C151.771 26.1561 152.394 26.1161 153.002 26.2165C153.509 26.1094 154.027 26.0605 154.546 26.0706C154.677 25.9812 154.827 25.9241 154.984 25.9038C155.141 25.8835 155.3 25.9006 155.449 25.9538C156.468 26.0899 157.498 26.1241 158.524 26.056C159.558 26.056 160.592 26.056 161.641 26.056C161.816 26.056 161.962 25.9392 162.166 26.056C162.391 26.1078 162.625 26.1078 162.851 26.056C163.054 26.0344 163.259 26.0344 163.463 26.056C164.27 26.204 165.093 26.2432 165.91 26.1727C166.721 26.2165 167.533 26.2165 168.344 26.1727C168.825 26.092 169.312 26.0529 169.801 26.056C170.005 26.056 170.238 25.9538 170.442 26.1727C170.646 26.3917 170.704 26.0706 170.835 26.056C170.966 26.0414 171.52 26.056 171.855 26.056C172.19 26.056 172.802 26.056 173.312 26.056C173.822 26.056 173.88 25.9684 174.172 25.9392H175.075C175.468 25.9392 175.847 26.0414 176.226 26.056C176.618 26.0194 177.014 26.0194 177.406 26.056C178.104 26.1675 178.812 26.2067 179.519 26.1727C180.218 26.1727 180.976 26.1727 181.617 26.1727C182.01 26.1727 182.36 26.3333 182.753 26.3187C183.147 26.3041 183.176 26.8442 183.103 27.0194C183.097 27.0381 183.088 27.0555 183.075 27.0706C183.063 27.0856 183.047 27.098 183.03 27.107C182.677 27.3285 182.278 27.4681 181.864 27.5157C181.136 27.4865 180.495 27.5011 179.854 27.5011Z" fill="black"/>
<path d="M169.728 48.6962H168.271C168.082 48.6962 167.907 48.6232 167.717 48.813C167.528 49.0028 167.441 48.6816 167.28 48.6816C166.829 48.6816 166.377 48.6816 165.925 48.6816L164.614 48.813C164.183 48.7618 163.748 48.7618 163.317 48.813C162.953 48.9006 162.633 48.7254 162.283 48.813C161.917 48.8786 161.542 48.8786 161.176 48.813C160.921 48.7337 160.654 48.704 160.389 48.7254C160.229 48.7254 160.068 48.8568 159.893 48.8422C159.719 48.8276 159.544 48.74 159.398 48.9736C159.398 48.9736 159.311 48.9736 159.282 48.9736C159.201 48.9143 159.104 48.8823 159.005 48.8823C158.905 48.8823 158.808 48.9143 158.728 48.9736C158.607 49.0371 158.471 49.0674 158.335 49.0612H157.213C156.936 49.0612 156.659 48.959 156.382 48.9298C156.098 48.9812 155.807 48.9812 155.523 48.9298C155.269 48.8459 155.002 48.8112 154.736 48.8276C154.59 48.8276 154.415 48.7254 154.284 48.959H154.197C153.774 48.667 153.352 49.0466 152.929 48.959C152.478 48.9225 152.025 48.9225 151.574 48.959C151.458 48.959 151.326 48.959 151.21 49.0612C151.093 49.1633 151.05 49.0612 150.991 49.0612C150.656 48.8422 150.307 49.0611 149.957 48.9444C149.565 48.97 149.171 48.9306 148.791 48.8276C148.694 48.7784 148.583 48.7617 148.476 48.7801C148.368 48.7985 148.269 48.851 148.194 48.9298C148.106 49.0174 147.917 48.9298 147.771 48.9298C147.626 48.9298 147.538 49.0466 147.422 49.0466C147.318 49.0269 147.219 48.9872 147.13 48.9298H147.028C146.46 49.1633 145.892 48.8568 145.324 48.9298C144.747 48.9736 144.167 48.9736 143.59 48.9298C143.414 48.9407 143.238 48.9012 143.083 48.8159C142.928 48.7306 142.801 48.6031 142.716 48.4481C142.661 48.3768 142.632 48.2896 142.632 48.1999C142.632 48.1103 142.661 48.023 142.716 47.9518C142.809 47.8676 142.918 47.803 143.036 47.762L143.59 47.6452C143.943 47.5125 144.321 47.4578 144.697 47.4847C144.814 47.4847 144.959 47.4117 145.061 47.6015C145.075 47.6091 145.09 47.6132 145.105 47.6132C145.12 47.6132 145.136 47.6091 145.149 47.6015C145.644 47.3241 146.183 47.5139 146.693 47.4847C147.123 47.3857 147.563 47.3367 148.004 47.3387C148.115 47.2536 148.245 47.1982 148.383 47.1778C148.52 47.1573 148.661 47.1725 148.791 47.2219C149.657 47.3699 150.538 47.4092 151.414 47.3387C152.288 47.3387 153.177 47.3387 154.066 47.3387C154.211 47.3387 154.342 47.2073 154.517 47.3387C154.692 47.4701 154.896 47.3387 155.1 47.3387C155.274 47.3093 155.451 47.3093 155.625 47.3387C156.31 47.4796 157.012 47.519 157.708 47.4555C158.402 47.4993 159.098 47.4993 159.791 47.4555C160.21 47.3845 160.634 47.3503 161.059 47.3533C161.234 47.3533 161.423 47.2511 161.598 47.4555C161.773 47.6598 161.817 47.3533 161.933 47.3533H162.807C163.215 47.3533 163.609 47.3533 164.017 47.3533C164.425 47.3533 164.498 47.2511 164.745 47.2365C165.002 47.2074 165.261 47.2074 165.517 47.2365C165.853 47.2365 166.173 47.3387 166.494 47.3533C166.833 47.3168 167.175 47.3168 167.514 47.3533C168.104 47.4672 168.706 47.5016 169.306 47.4555C169.902 47.492 170.501 47.492 171.098 47.4555C171.433 47.4555 171.739 47.6015 172.074 47.6015C172.409 47.6015 172.424 48.1269 172.365 48.3021V48.3897C172.072 48.5999 171.732 48.7352 171.375 48.7838L169.728 48.6962Z" fill="black"/>
<path d="M174.594 66.6063H173.458C173.327 66.6063 173.181 66.5188 173.036 66.7085C172.89 66.8983 172.817 66.5771 172.686 66.5917C172.336 66.5917 171.986 66.5917 171.622 66.5917C171.258 66.5917 170.937 66.6939 170.602 66.7085C170.263 66.6716 169.921 66.6716 169.582 66.7085C169.291 66.8107 169.043 66.6355 168.767 66.7085C168.479 66.7742 168.18 66.7742 167.892 66.7085C167.698 66.6308 167.489 66.596 167.28 66.6063C167.149 66.6063 167.033 66.7523 166.902 66.7377C166.77 66.7231 166.625 66.6355 166.508 66.8545C166.392 67.0734 166.508 66.8545 166.406 66.8545C166.349 66.8001 166.274 66.7697 166.195 66.7697C166.116 66.7697 166.041 66.8001 165.984 66.8545C165.939 66.8908 165.888 66.9174 165.833 66.9324C165.778 66.9475 165.72 66.9508 165.663 66.9421C165.372 66.964 165.08 66.964 164.789 66.9421C164.57 66.9421 164.352 66.8399 164.133 66.8253C163.915 66.8107 163.667 66.8253 163.463 66.8253C163.27 66.7432 163.06 66.7082 162.851 66.7231C162.735 66.7231 162.589 66.6209 162.501 66.8399C162.166 66.5479 161.831 66.9421 161.496 66.8399C161.143 66.7965 160.786 66.7965 160.433 66.8399C160.345 66.8399 160.243 66.8399 160.156 66.9421C160.145 66.9545 160.131 66.9644 160.116 66.9712C160.101 66.9781 160.085 66.9816 160.068 66.9816C160.052 66.9816 160.035 66.9781 160.02 66.9712C160.005 66.9644 159.992 66.9545 159.981 66.9421C159.719 66.7231 159.442 66.8545 159.165 66.8253C158.888 66.7961 158.553 66.8253 158.247 66.7085C158.211 66.6821 158.169 66.6638 158.125 66.6546C158.081 66.6455 158.035 66.6457 157.991 66.6553C157.947 66.665 157.906 66.6838 157.87 66.7106C157.833 66.7373 157.803 66.7715 157.781 66.8107C157.708 66.8983 157.562 66.8107 157.446 66.8107C157.329 66.8107 157.271 66.9275 157.184 66.9275C157.096 66.9275 157.023 66.8399 156.95 66.8107C156.937 66.803 156.922 66.7989 156.907 66.7989C156.891 66.7989 156.876 66.803 156.863 66.8107C156.426 67.0443 155.974 66.7231 155.523 66.8107C155.072 66.8545 154.618 66.8545 154.168 66.8107C154.016 66.8118 153.867 66.7642 153.744 66.675C153.621 66.5857 153.529 66.4594 153.483 66.3144C153.439 66.2416 153.416 66.1584 153.416 66.0735C153.416 65.9887 153.439 65.9054 153.483 65.8327C153.551 65.7465 153.642 65.6808 153.745 65.6429L154.168 65.5262C154.459 65.5262 154.75 65.2634 155.042 65.3656C155.333 65.4677 155.246 65.2926 155.319 65.4678C155.712 65.1904 156.134 65.3802 156.542 65.351C156.95 65.3218 157.227 65.1174 157.577 65.205C157.651 65.1238 157.749 65.0686 157.856 65.0475C157.964 65.0265 158.075 65.0408 158.174 65.0882C158.854 65.2288 159.552 65.2682 160.243 65.205C160.928 65.205 161.7 65.205 162.327 65.205C162.443 65.205 162.545 65.0736 162.676 65.205C162.807 65.3364 162.982 65.205 163.128 65.205C163.267 65.1755 163.411 65.1755 163.551 65.205C164.082 65.3465 164.636 65.3861 165.182 65.3218C165.725 65.3654 166.271 65.3654 166.814 65.3218C167.139 65.2445 167.472 65.2101 167.805 65.2196C167.951 65.2196 168.096 65.1174 168.242 65.3218C168.388 65.5261 168.417 65.2196 168.504 65.2196C168.732 65.2048 168.961 65.2048 169.189 65.2196H170.136C170.326 65.2196 170.515 65.1174 170.704 65.1028C170.908 65.0813 171.113 65.0813 171.316 65.1028L172.074 65.2342C172.34 65.1972 172.609 65.1972 172.875 65.2342C173.35 65.3582 173.843 65.3978 174.332 65.351C174.817 65.3827 175.304 65.3827 175.789 65.351C176.051 65.351 176.299 65.5115 176.547 65.5115C176.795 65.5115 176.838 66.0225 176.78 66.2122C176.787 66.2361 176.787 66.2613 176.78 66.2852C176.532 66.4604 176.299 66.7085 176.008 66.6939C175.716 66.6793 175.032 66.6063 174.594 66.6063Z" fill="black"/>
<path d="M116.84 52.6072C116.738 52.1984 116.636 51.7751 116.505 51.3664C116.388 51.0866 116.196 50.8443 115.951 50.6657C115.807 50.5636 115.633 50.5124 115.456 50.5198C115.981 50.3446 116.636 49.9067 116.578 49.6293C116.418 48.8849 116.578 48.0383 116.287 47.2792C115.681 45.9577 114.944 44.7009 114.087 43.5278C113.054 42.4344 111.959 41.4012 110.808 40.4332C110.083 39.9152 109.252 39.5661 108.375 39.4114C107.558 39.0833 106.7 38.8672 105.825 38.7691C105.119 38.7052 104.408 38.7746 103.727 38.9735C103.104 39.2134 102.5 39.5013 101.921 39.8347C100.957 40.2875 100.052 40.8561 99.2253 41.528C98.7585 41.9201 98.3292 42.3551 97.9431 42.8271L103.115 48.7973H95.51C95.2942 50.2464 95.2355 51.7147 95.3351 53.1764C95.4808 54.8843 96.2676 56.3586 96.5153 58.1248C96.5153 58.5774 96.9232 58.9131 97.1418 59.2926C97.3603 59.6721 97.8703 60.0225 97.9286 60.5042C97.9869 60.9859 98.4968 61.0443 98.7445 61.3216C100.321 62.9925 102.344 64.1733 104.572 64.7227C105.719 64.9345 106.894 64.9345 108.04 64.7227C109.176 64.5183 110.284 64.241 111.479 63.9491C111.856 63.8947 112.208 63.7257 112.487 63.4647C112.766 63.2036 112.958 62.8632 113.038 62.4893C114.116 61.9201 114.494 60.7085 115.019 59.7889C115.544 58.8693 116.665 57.6431 116.345 56.2564C116.345 56.2564 116.345 56.0813 116.461 56.0667C116.957 55.9645 116.782 55.5558 116.928 55.293C117.195 54.4125 117.164 53.4683 116.84 52.6072Z" fill="black"/>
<path d="M232.262 46.3444L226.011 46.213L230.207 40.3742C229.983 40.1083 229.74 39.8595 229.479 39.6298C228.852 39.1043 228.561 38.2431 227.628 37.9219C226.639 37.4351 225.622 37.0061 224.583 36.6374C223.478 36.462 222.352 36.462 221.247 36.6374C220.144 36.7326 219.065 37.0139 218.056 37.4694C217.706 37.6446 217.036 37.3235 216.963 37.6446C216.832 38.2723 216.337 38.2869 216.002 38.5642C215.121 39.2237 214.323 39.9884 213.627 40.8413C212.903 41.8022 212.297 42.8459 211.82 43.9505C211.485 44.7096 211.98 45.4978 212.286 46.1839C212.328 46.2588 212.395 46.3159 212.476 46.3444C212.636 46.3954 212.803 46.4248 212.971 46.432C212.708 46.3752 212.437 46.3745 212.174 46.4302C211.911 46.4859 211.662 46.5966 211.445 46.7551C211.228 46.9136 211.046 47.1162 210.913 47.3498C210.779 47.5834 210.696 47.8427 210.669 48.1106C210.519 49.4059 210.705 50.718 211.208 51.9205C211.733 53.0445 211.587 54.6209 212.957 55.4092C212.993 55.4246 213.025 55.4485 213.051 55.479C213.076 55.5095 213.094 55.5456 213.102 55.5844C213.102 55.8179 213.102 56.1391 213.321 56.3142C213.539 56.4894 213.918 56.5478 214.151 56.7229C214.384 56.8981 214.647 57.3798 214.996 57.336C215.256 57.2853 215.525 57.3154 215.767 57.4224C216.01 57.5294 216.213 57.7081 216.351 57.9345C217.09 58.6173 218.021 59.0556 219.018 59.1898C219.892 59.4672 220.781 59.1898 221.684 59.6715C221.783 59.7167 221.894 59.7297 222.001 59.7088C222.108 59.6879 222.206 59.6341 222.281 59.5548C222.514 59.1315 222.849 59.2482 223.155 59.1606C224.236 58.8414 225.292 58.4463 226.317 57.9783C227.395 57.5841 227.454 56.2704 228.707 56.1098C228.779 56.1098 228.881 56.0077 228.852 55.9493C228.605 55.38 229.071 55.2632 229.275 55.0005C229.623 54.5049 230.045 54.0666 230.528 53.7013C231.081 53.3072 231.169 52.5773 231.46 51.9935C231.811 51.4644 232.108 50.9022 232.349 50.3148C232.594 49.5157 232.717 48.6839 232.713 47.8479C232.741 47.6891 232.734 47.5263 232.694 47.3703C232.654 47.2143 232.581 47.0686 232.48 46.9429C232.338 46.7759 232.261 46.5636 232.262 46.3444Z" fill="black"/>
</svg>
