<?xml version="1.0" standalone="no"?>
<!DOCTYPE svg PUBLIC "-//W3C//DTD SVG 20010904//EN"
 "http://www.w3.org/TR/2001/REC-SVG-20010904/DTD/svg10.dtd">
<svg version="1.0" xmlns="http://www.w3.org/2000/svg"
 width="349.000000pt" height="349.000000pt" viewBox="0 0 349.000000 349.000000"
 preserveAspectRatio="xMidYMid meet">
<metadata>
Created by potrace 1.14, written by Peter Selinger 2001-2017
</metadata>
<g transform="translate(0.000000,349.000000) scale(0.100000,-0.100000)"
fill="#000000" stroke="none">
<path d="M1445 3011 c-191 -35 -338 -83 -500 -162 -421 -204 -763 -584 -914
-1014 l-32 -89 32 -86 c269 -717 952 -1191 1717 -1190 766 1 1439 470 1712
1192 l33 87 -27 78 c-179 508 -616 937 -1135 1113 -196 67 -292 81 -551 86
-197 3 -251 1 -335 -15z m430 -182 c531 -46 985 -326 1270 -784 58 -92 135
-261 135 -295 0 -33 -75 -197 -135 -296 -379 -625 -1128 -926 -1825 -734 -412
114 -766 383 -984 750 -74 125 -129 258 -121 296 8 47 107 244 167 333 281
421 725 686 1227 731 126 11 135 11 266 -1z"/>
<path d="M1571 2536 c-76 -29 -163 -87 -197 -132 l-24 -31 125 -211 c69 -116
125 -213 125 -216 0 -4 -99 -6 -219 -6 l-219 0 -7 -31 c-11 -49 -8 -267 5
-344 53 -325 252 -575 491 -615 223 -38 446 121 558 397 125 306 97 684 -69
946 -56 89 -163 188 -247 228 -60 29 -80 33 -163 36 -81 3 -104 0 -159 -21z"/>
</g>
</svg>
